<svg xmlns="http://www.w3.org/2000/svg" width="12.214" height="13.66" viewBox="0 0 12.214 13.66">
  <g id="discount_2_" data-name="discount (2)" transform="translate(-17.097)">
    <path id="Tracé_14209" data-name="Tracé 14209" d="M158.159,133.038a.765.765,0,1,0,.766.765A.766.766,0,0,0,158.159,133.038Z" transform="translate(-133.205 -126.466)" fill="#ff9b65"/>
    <path id="Tracé_14210" data-name="Tracé 14210" d="M88.9,85.946a.765.765,0,1,0,.766.766A.766.766,0,0,0,88.9,85.946Z" transform="translate(-67.444 -81.7)" fill="#ff9b65"/>
    <path id="Tracé_14211" data-name="Tracé 14211" d="M29.273,8.273a.571.571,0,0,0-.534-.36H27.645V1.08A1.093,1.093,0,0,0,26.539,0h-6.67a1.093,1.093,0,0,0-1.106,1.08V7.914H17.668a.571.571,0,0,0-.534.36.549.549,0,0,0,.154.615l5.18,4.5a1.126,1.126,0,0,0,1.47,0l5.18-4.5A.549.549,0,0,0,29.273,8.273ZM20.007,4.963a1.4,1.4,0,1,1,1.4,1.365A1.383,1.383,0,0,1,20.007,4.963ZM22.2,8.907a.391.391,0,0,1-.348.208.4.4,0,0,1-.176-.041.376.376,0,0,1-.171-.511l2.685-5.155a.394.394,0,0,1,.524-.167.376.376,0,0,1,.171.511ZM25,8.716a1.365,1.365,0,1,1,1.4-1.365A1.383,1.383,0,0,1,25,8.716Z" fill="#ff9b65"/>
  </g>
</svg>
