<svg xmlns="http://www.w3.org/2000/svg" width="36.027" height="34.712" viewBox="0 0 36.027 34.712">
    <defs>
        <style>
            .cls-1{fill:#e1280c}.cls-2{fill:#0076ff}.cls-3{fill:#881f53}.cls-4{fill:#780504}.cls-5{fill:#000e53}.cls-6{fill:#000204}.cls-7{fill:#50f0c7}.cls-8{fill:#006fc7}.cls-9{fill:#001209}.cls-10{fill:#260503}.cls-11{fill:#000d41}.cls-12{fill:#000203}.cls-13{fill:#ffce00}.cls-14{fill:#e12000}.cls-15{fill:#780400}.cls-16{fill:#000b00}.cls-17{fill:#000200}.cls-18{fill:#50c200}.cls-19{fill:#471f00}.cls-20{fill:#005a00}.cls-21{fill:#000f00}.cls-22{fill:#2b1700}.cls-23{fill:#260400}
        </style>
    </defs>
    <g id="Groupe_5604" data-name="Groupe 5604" transform="translate(-1234.56 77.224)">
        <path id="Tracé_11990" d="M1357.915 58.986l-4.918 1.6-3 4.125 4.161 5.726a4.883 4.883 0 0 0 7.9-5.741l-4.147-5.708" class="cls-1" data-name="Tracé 11990" transform="translate(-97.426 -114.955)"/>
        <path id="Tracé_11991" d="M1323.588-77.224a4.9 4.9 0 0 0-4.883 4.883v7.087l4.883 1.587 4.884-1.587v-7.087a4.9 4.9 0 0 0-4.884-4.883" class="cls-2" data-name="Tracé 11991" transform="translate(-71.014)"/>
        <path id="Tracé_11992" d="M1389.532-16.072a4.842 4.842 0 0 0-1.5.238l-6.739 2.19v5.113l3.031 4.172 6.726-2.186a4.9 4.9 0 0 0 3.135-6.153 4.9 4.9 0 0 0-4.655-3.373" class="cls-3" data-name="Tracé 11992" transform="translate(-123.837 -51.61)"/>
        <path id="Tracé_11993" d="M1371.092 32.252v1.6a4.839 4.839 0 0 1-.238 1.521 4.838 4.838 0 0 1-.906 1.63l-.742 1.022 4.918-1.6-3.031-4.172" class="cls-4" data-name="Tracé 11993" transform="translate(-113.634 -92.393)"/>
        <path id="Tracé_11994" d="M1354.883-.514L1350 1.073l1.016.33a4.836 4.836 0 0 1 1.86.824 4.84 4.84 0 0 1 1.223 1.29l.785 1.08V-.514" class="cls-5" data-name="Tracé 11994" transform="translate(-97.425 -64.74)"/>
        <path id="Tracé_11995" d="M1376.264 25.328a4.924 4.924 0 0 1 .785 2.662v.016-1.6l-.785-1.08" class="cls-6" data-name="Tracé 11995" transform="translate(-119.592 -86.549)"/>
        <path id="Tracé_11996" d="M1239.454-16.072a4.9 4.9 0 0 0-4.654 3.372 4.9 4.9 0 0 0 3.135 6.153l6.726 2.186 3.031-4.172v-5.113l-6.738-2.19a4.843 4.843 0 0 0-1.5-.238" class="cls-7" data-name="Tracé 11996" transform="translate(0 -51.61)"/>
        <path id="Tracé_11997" d="M1318.7-.514V4.6l.785-1.081a4.86 4.86 0 0 1 3.079-2.114l1.019-.331-4.883-1.588" class="cls-8" data-name="Tracé 11997" transform="translate(-71.014 -64.74)"/>
        <path id="Tracé_11998" d="M1326.816 11.779a4.86 4.86 0 0 0-3.079 2.114l.153-.21a4.862 4.862 0 0 1 2.872-1.887l.054-.017" class="cls-9" data-name="Tracé 11998" transform="translate(-75.261 -75.115)"/>
        <path id="Tracé_11999" d="M1375.106 42.488v.012a4.857 4.857 0 0 1-1.1 3.077l-.045.063a4.84 4.84 0 0 0 .906-1.63 4.849 4.849 0 0 0 .238-1.521" class="cls-10" data-name="Tracé 11999" transform="translate(-117.649 -101.032)"/>
        <path id="Tracé_12000" d="M1344.486 9.656l-1.019.331a4.886 4.886 0 0 1 .99-.1h.045a4.887 4.887 0 0 1 1 .1l-1.015-.33" class="cls-11" data-name="Tracé 12000" transform="translate(-91.912 -73.323)"/>
        <path id="Tracé_12001" d="M1349.078 15.993a4.851 4.851 0 0 1-.927 2.868l-.172.236a4.857 4.857 0 0 0 1.1-3.077v-.011-.016m-4.913-4.88a4.886 4.886 0 0 0-.99.1l-.054.017a4.953 4.953 0 0 1 1.044-.121" class="cls-12" data-name="Tracé 12001" transform="translate(-91.621 -74.552)"/>
        <path id="Tracé_12002" d="M1271.834 58.987l-4.147 5.709a4.883 4.883 0 0 0 7.9 5.74l4.16-5.726-3-4.125-4.917-1.6" class="cls-13" data-name="Tracé 12002" transform="translate(-27.174 -114.956)"/>
        <path id="Tracé_12003" d="M1336.789 69.227l-1.489.484a4.84 4.84 0 0 1-1.5.238h-.019a4.84 4.84 0 0 1-1.5-.238l-1.489-.484 3 4.125 3-4.125" class="cls-14" data-name="Tracé 12003" transform="translate(-81.218 -123.598)"/>
        <path id="Tracé_12004" d="M1353.739 62.68a4.91 4.91 0 0 1-1.109.97 4.847 4.847 0 0 1-2.588.774h-.032a4.84 4.84 0 0 0 1.5-.238l1.49-.486.742-1.022" class="cls-15" data-name="Tracé 12004" transform="translate(-97.426 -118.073)"/>
        <path id="Tracé_12005" d="M1356.506 11.771l.057.019a4.861 4.861 0 0 1 2.873 1.887l.153.21a4.839 4.839 0 0 0-1.223-1.29 4.835 4.835 0 0 0-1.86-.824" class="cls-16" data-name="Tracé 12005" transform="translate(-102.917 -75.108)"/>
        <path id="Tracé_12006" d="M1352.8 20.785a4.917 4.917 0 0 1-2.588.774 4.846 4.846 0 0 0 2.588-.774m-1.557-8.9l.437.142a4.9 4.9 0 0 1 3.373 4.617 4.924 4.924 0 0 0-.785-2.662l-.153-.21a4.861 4.861 0 0 0-2.873-1.887" class="cls-17" data-name="Tracé 12006" transform="translate(-97.589 -75.208)"/>
        <path id="Tracé_12007" d="M1302.313 32.253l-3.031 4.172 4.917 1.6-.741-1.02a4.86 4.86 0 0 1-1.146-3.154v-1.6" class="cls-18" data-name="Tracé 12007" transform="translate(-54.622 -92.394)"/>
        <path id="Tracé_12008" d="M1326.048 62.693l.741 1.02 1.489.484a4.838 4.838 0 0 0 1.5.238h-.031a4.844 4.844 0 0 1-2.576-.765 4.906 4.906 0 0 1-1.121-.976" class="cls-19" data-name="Tracé 12008" transform="translate(-77.211 -118.084)"/>
        <path id="Tracé_12009" d="M1319.49 25.327l-.785 1.081V27.981a4.924 4.924 0 0 1 .785-2.658" class="cls-20" data-name="Tracé 12009" transform="translate(-71.014 -86.548)"/>
        <path id="Tracé_12010" d="M1320.972 20.794a4.844 4.844 0 0 0 2.575.765 4.916 4.916 0 0 1-2.575-.765m1.543-8.9a4.862 4.862 0 0 0-2.872 1.887l-.152.21a4.923 4.923 0 0 0-.785 2.658 4.9 4.9 0 0 1 3.373-4.612l.437-.142" class="cls-21" data-name="Tracé 12010" transform="translate(-71.015 -75.208)"/>
        <path id="Tracé_12011" d="M1318.7 42.478a4.859 4.859 0 0 0 1.146 3.154l-.047-.064a4.856 4.856 0 0 1-1.1-3.077v-.013" class="cls-22" data-name="Tracé 12011" transform="translate(-71.014 -101.023)"/>
        <path id="Tracé_12012" d="M1325.7490000000003 62.278999999999996l.047.064a4.9 4.9 0 0 0 1.121.976 4.943 4.943 0 0 1-1.168-1.041m7.569 0a4.943 4.943 0 0 1-1.155 1.032 4.915 4.915 0 0 0 1.109-.97l.045-.063" class="cls-23" data-name="Tracé 12012" transform="translate(-76.958 -117.734)"/>
        <path id="Tracé_12013" d="M1318.705 15.988v.032a4.856 4.856 0 0 0 1.1 3.077l-.172-.236a4.852 4.852 0 0 1-.927-2.873m4.9-4.876h-.031a4.952 4.952 0 0 1 1.088.121l-.057-.019a4.888 4.888 0 0 0-1-.1" class="cls-16" data-name="Tracé 12013" transform="translate(-71.014 -74.552)"/>
        <path id="Tracé_12014" d="M1323.574 11.113h-.014a4.953 4.953 0 0 0-1.044.121l-.437.142a4.9 4.9 0 0 0-3.373 4.612 4.849 4.849 0 0 0 .927 2.873l.172.236a4.889 4.889 0 0 0 3.743 1.806h.083a4.889 4.889 0 0 0 3.743-1.806l.172-.236a4.85 4.85 0 0 0 .927-2.868 4.9 4.9 0 0 0-3.373-4.617l-.437-.142a4.951 4.951 0 0 0-1.088-.121" class="cls-17" data-name="Tracé 12014" transform="translate(-71.015 -74.552)"/>
    </g>
</svg>
